C:\Users\movea\Dropbox\PhDWork\ExperimentalData\subject7\100\P7S100W02_filtered35.mot
nRows=13
nColumns=28

name C:\Users\movea\Dropbox\PhDWork\ExperimentalData\subject7\100\P7S100W02_filtered35.mot
datacolumns 28
datarows 13
range 1.0000000000 1.0120000000
endheader
time	ground_force_1_vx	ground_force_1_vy	ground_force_1_vz	ground_force_1_px	ground_force_1_py	ground_force_1_pz	ground_moment_1_mx	ground_moment_1_my	ground_moment_1_mz	ground_force_2_vx	ground_force_2_vy	ground_force_2_vz	ground_force_2_px	ground_force_2_py	ground_force_2_pz	ground_moment_2_mx	ground_moment_2_my	ground_moment_2_mz	ground_force_3_vx	ground_force_3_vy	ground_force_3_vz	ground_force_3_px	ground_force_3_py	ground_force_3_pz	ground_moment_3_mx	ground_moment_3_my	ground_moment_3_mz
        1.0000000000	      -23.0552817243	      562.9680476607	       63.2754651266	        0.1988394958	        0.0000558755	       -0.3004071327	       45.2874997295	       -2.8516511432	       12.8825287436	        0.0000000158	        0.0000002010	       -0.0000000714	        0.2029003516	       -0.0000795827	        0.4543649445	        0.0000000570	       -0.0000000107	       -0.0000000128	        0.0000000000	        0.0000000000	        0.0000000000	        0.2076431971	        0.0000770316	        1.3583900146	        0.0000000000	        0.0000000000	        0.0000000000	
        1.0010000000	      -22.8228618895	      563.0541482447	       62.2683075248	        0.1988394958	        0.0000558755	       -0.3004071327	       45.3055179162	       -2.8437166054	       12.8651987805	        0.0000000110	        0.0000002831	       -0.0000001216	        0.2029003516	       -0.0000795827	        0.4543649445	        0.0000000848	       -0.0000000112	       -0.0000000182	        0.0000000000	        0.0000000000	        0.0000000000	        0.2076431971	        0.0000770316	        1.3583900146	        0.0000000000	        0.0000000000	        0.0000000000	
        1.0020000000	      -22.5988778381	      563.0788190948	       61.2722983208	        0.1988394958	        0.0000558755	       -0.3004071327	       45.3203761840	       -2.8339130269	       12.8470161517	        0.0000000071	        0.0000003211	       -0.0000001481	        0.2029003516	       -0.0000795827	        0.4543649445	        0.0000000984	       -0.0000000109	       -0.0000000206	        0.0000000000	        0.0000000000	        0.0000000000	        0.2076431971	        0.0000770316	        1.3583900146	        0.0000000000	        0.0000000000	        0.0000000000	
        1.0030000000	      -22.3842443124	      563.0470840595	       60.2875594666	        0.1988394958	        0.0000558755	       -0.3004071327	       45.3325401437	       -2.8222484376	       12.8284620528	        0.0000000040	        0.0000003267	       -0.0000001568	        0.2029003516	       -0.0000795827	        0.4543649445	        0.0000001014	       -0.0000000100	       -0.0000000210	        0.0000000000	        0.0000000000	        0.0000000000	        0.2076431971	        0.0000770316	        1.3583900146	        0.0000000000	        0.0000000000	        0.0000000000	
        1.0040000000	      -22.1790290755	      562.9635458268	       59.3140416609	        0.1988394958	        0.0000558755	       -0.3004071327	       45.3422129291	       -2.8088152772	       12.8099492397	        0.0000000016	        0.0000003101	       -0.0000001528	        0.2029003516	       -0.0000795827	        0.4543649445	        0.0000000971	       -0.0000000087	       -0.0000000200	        0.0000000000	        0.0000000000	        0.0000000000	        0.2076431971	        0.0000770316	        1.3583900146	        0.0000000000	        0.0000000000	        0.0000000000	
        1.0050000000	      -21.9823540725	      562.8319166418	       58.3521128310	        0.1988394958	        0.0000558755	       -0.3004071327	       45.3493419743	       -2.7937769924	       12.7915981702	       -0.0000000001	        0.0000002793	       -0.0000001406	        0.2029003516	       -0.0000795827	        0.4543649445	        0.0000000881	       -0.0000000073	       -0.0000000180	        0.0000000000	        0.0000000000	        0.0000000000	        0.2076431971	        0.0000770316	        1.3583900146	        0.0000000000	        0.0000000000	        0.0000000000	
        1.0060000000	      -21.7924671242	      562.6543398407	       57.4030817634	        0.1988394958	        0.0000558755	       -0.3004071327	       45.3538654293	       -2.7773577214	       12.7733295011	       -0.0000000013	        0.0000002410	       -0.0000001235	        0.2029003516	       -0.0000795827	        0.4543649445	        0.0000000765	       -0.0000000059	       -0.0000000156	        0.0000000000	        0.0000000000	        0.0000000000	        0.2076431971	        0.0000770316	        1.3583900146	        0.0000000000	        0.0000000000	        0.0000000000	
        1.0070000000	      -21.6072794467	      562.4318888515	       56.4690444764	        0.1988394958	        0.0000558755	       -0.3004071327	       45.3559897571	       -2.7598074436	       12.7550575549	       -0.0000000020	        0.0000001998	       -0.0000001041	        0.2029003516	       -0.0000795827	        0.4543649445	        0.0000000638	       -0.0000000046	       -0.0000000129	        0.0000000000	        0.0000000000	        0.0000000000	        0.2076431971	        0.0000770316	        1.3583900146	        0.0000000000	        0.0000000000	        0.0000000000	
        1.0080000000	      -21.4250605419	      562.1664857126	       55.5518839387	        0.1988394958	        0.0000558755	       -0.3004071327	       45.3563538141	       -2.7414356635	       12.7367825992	       -0.0000000023	        0.0000001594	       -0.0000000844	        0.2029003516	       -0.0000795827	        0.4543649445	        0.0000000512	       -0.0000000034	       -0.0000000103	        0.0000000000	        0.0000000000	        0.0000000000	        0.2076431971	        0.0000770316	        1.3583900146	        0.0000000000	        0.0000000000	        0.0000000000	
        1.0090000000	      -21.2445626982	      561.8626936626	       54.6524055559	        0.1988394958	        0.0000558755	       -0.3004071327	       45.3559343958	       -2.7226315030	       12.7185702329	       -0.0000000024	        0.0000001219	       -0.0000000658	        0.2029003516	       -0.0000795827	        0.4543649445	        0.0000000394	       -0.0000000024	       -0.0000000079	        0.0000000000	        0.0000000000	        0.0000000000	        0.2076431971	        0.0000770316	        1.3583900146	        0.0000000000	        0.0000000000	        0.0000000000	
        1.0100000000	      -21.0646738873	      561.5273217761	       53.7705319887	        0.1988394958	        0.0000558755	       -0.3004071327	       45.3557854010	       -2.7037741596	       12.7004427655	       -0.0000000023	        0.0000000889	       -0.0000000490	        0.2029003516	       -0.0000795827	        0.4543649445	        0.0000000290	       -0.0000000016	       -0.0000000058	        0.0000000000	        0.0000000000	        0.0000000000	        0.2076431971	        0.0000770316	        1.3583900146	        0.0000000000	        0.0000000000	        0.0000000000	
        1.0110000000	      -20.8844038857	      561.1674551545	       52.9063635361	        0.1988394958	        0.0000558755	       -0.3004071327	       45.3570041869	       -2.6851591946	       12.6822818595	       -0.0000000021	        0.0000000609	       -0.0000000346	        0.2029003516	       -0.0000795827	        0.4543649445	        0.0000000200	       -0.0000000009	       -0.0000000039	        0.0000000000	        0.0000000000	        0.0000000000	        0.2076431971	        0.0000770316	        1.3583900146	        0.0000000000	        0.0000000000	        0.0000000000	
        1.0120000000	      -20.7031853415	      560.7893062478	       52.0610734412	        0.1988394958	        0.0000558755	       -0.3004071327	       45.3609354928	       -2.6670462088	       12.6638185895	       -0.0000000018	        0.0000000381	       -0.0000000226	        0.2029003516	       -0.0000795827	        0.4543649445	        0.0000000127	       -0.0000000004	       -0.0000000025	        0.0000000000	        0.0000000000	        0.0000000000	        0.2076431971	        0.0000770316	        1.3583900146	        0.0000000000	        0.0000000000	        0.0000000000	
